<svg id="图层_1" data-name="图层 1" xmlns="http://www.w3.org/2000/svg" viewBox="0 0 30 30"><defs><style>.cls-1{fill:#3e3a39;}</style></defs><title>商城ICON</title><path class="cls-1" d="M25.67933,6.54151H21.36825V4.63006a2.77806,2.77806,0,0,0-2.6816-2.7319h-7.361A2.7847,2.7847,0,0,0,8.631,4.63006V6.54151H4.31989a.79665.79665,0,0,0-.79642.79689V24.13784a3.87235,3.87235,0,0,0,3.76385,3.964H22.72439a3.86721,3.86721,0,0,0,3.75215-3.964V7.3384a.79719.79719,0,0,0-.797-.79689ZM10.225,4.63006a1.21233,1.21233,0,0,1,1.10067-1.13785h7.361a1.19012,1.19012,0,0,1,1.08892,1.13785V6.54135H10.22486V4.63006ZM8.631,8.13544v2.5734a1.23836,1.23836,0,1,0,1.594-.10672V8.13544h9.55055v2.46668a1.23646,1.23646,0,1,0,1.59268.10672V8.13544h3.51482V22.42978H5.11677V8.13544ZM22.72439,26.50779H7.28732a2.27889,2.27889,0,0,1-2.17055-2.3701v-.31474H24.88307v.31474a2.274,2.274,0,0,1-2.15884,2.3701Zm0,0"/></svg>