<svg id="图层_1" data-name="图层 1" xmlns="http://www.w3.org/2000/svg" viewBox="0 0 30 30"><title>商城ICON</title><path d="M13.52892,9.17686A4.34791,4.34791,0,1,0,9.18094,4.829a4.35267,4.35267,0,0,0,4.348,4.34785Zm0-7.24652A2.8986,2.8986,0,1,1,10.63026,4.829a2.902,2.902,0,0,1,2.89866-2.89866Zm9.42063,15.99409a4.34791,4.34791,0,1,0-4.348-4.348,4.35259,4.35259,0,0,0,4.348,4.348Zm0-7.24652a2.89868,2.89868,0,1,1-2.89867,2.89866,2.90172,2.90172,0,0,1,2.89867-2.89866Zm6.54016,13.09543a4.09718,4.09718,0,0,0-3.96959-2.95021H19.47129c-.00983-.01255-.01633-.02571-.02616-.03826a5.70874,5.70874,0,0,0-4.50081-2.11664H12.236c-1.73586-2.12651-4.62547-2.70289-5.95362-2.859v-.78345a.72448.72448,0,0,0-.72472-.72459h-4.348a.72445.72445,0,0,0-.72459.72459V28.06966a.72445.72445,0,0,0,.72459.72472h4.348a.72444.72444,0,0,0,.72455-.72472V27.068c1.846.85075,5.54254,2.451,7.24132,2.451h.01c4.13064-.017,15.07832-4.69118,15.54224-4.89a.72487.72487,0,0,0,.41392-.85567ZM4.83309,27.34506H1.93443V15.75053H4.83309Zm8.69473.72459h-.00666c-1.44614,0-5.39116-1.72652-7.23892-2.60151v-8.195c1.23754.16978,3.711.72809,5.00661,2.54075a.72416.72416,0,0,0,.58942.30365h3.066a4.26883,4.26883,0,0,1,3.36847,1.57169,3.49892,3.49892,0,0,1,.67793,1.3078H10.54a.72468.72468,0,0,0,0,1.44935h9.26763a.72452.72452,0,0,0,.72476-.72476,4.351,4.351,0,0,0-.253-1.44919h5.24076a2.573,2.573,0,0,1,2.31115,1.307c-2.465,1.02475-11.01734,4.47681-14.30344,4.49017Zm0,0"/></svg>