<svg id="图层_1" data-name="图层 1" xmlns="http://www.w3.org/2000/svg" viewBox="0 0 13 12"><defs><style>.cls-1{fill:#ffad99;}.cls-2{fill:#ea6e2b;}.cls-3{fill:#fff;}</style></defs><title>商城ICON</title><path class="cls-1" d="M6.86988,11.61015A5.65594,5.65594,0,0,1,1.18644,6,5.68391,5.68391,0,0,1,12.55331,6a5.65594,5.65594,0,0,1-5.68343,5.61011Zm0,0"/><path class="cls-2" d="M6.05679,11.61015A5.61015,5.61015,0,1,1,11.6669,6a5.59441,5.59441,0,0,1-5.6101,5.61011Zm0,0"/><path class="cls-3" d="M2.80289,6.05556l3.162-3.162L9.2226,6.15124l-3.1617,3.162Zm0,0"/><path class="cls-1" d="M6.54467,3.50658l-.59628-.59622L2.80452,6.05423,6.05679,9.3065l.59628-.59628L3.997,6.05423Zm0,0"/></svg>