<svg id="图层_1" data-name="图层 1" xmlns="http://www.w3.org/2000/svg" viewBox="0 0 29 29"><defs><style>.cls-1{fill:#707070;stroke:#fff;stroke-miterlimit:10;stroke-width:0.4px;}</style></defs><title>商城ICON</title><path class="cls-1" d="M11.86631,25.50569C3.03389,25.44006.81806,24.17374.81806,20.64853V15.18877a2.05631,2.05631,0,0,1,2.05089-2.05911h1.371a2.05567,2.05567,0,0,1,2.05092,2.05847v5.46039H4.92261V15.18877a.68817.68817,0,0,0-.68269-.69088h-1.371a.688.688,0,0,0-.68266.69024v5.46039c0,1.31826.20864,1.83063,1.16571,2.33692,1.34762.71279,4.01911,1.11026,8.48275,1.15134a2.73937,2.73937,0,1,1,.03157,1.3689Zm14.26344-12.376H24.76152a10.26152,10.26152,0,0,0-20.523,0H2.87039a11.62968,11.62968,0,0,1,23.25936,0Zm-3.42059,2.05847a2.05644,2.05644,0,0,1,2.05092-2.05847h1.371a2.05564,2.05564,0,0,1,2.05089,2.05847v5.46039A2.05633,2.05633,0,0,1,26.13105,22.707h-1.371a2.05576,2.05576,0,0,1-2.05092-2.05847Zm1.36823,0v5.46039a.68806.68806,0,0,0,.68269.69038h1.371a.68805.68805,0,0,0,.68266-.69038V15.18877a.688.688,0,0,0-.68266-.69024h-1.371a.688.688,0,0,0-.68269.69024Zm-9.5773,10.93942a1.36823,1.36823,0,1,0-1.36823-1.36823,1.36852,1.36852,0,0,0,1.36823,1.36823Zm0,0"/></svg>