<svg id="图层_1" data-name="图层 1" xmlns="http://www.w3.org/2000/svg" viewBox="0 0 29 29"><defs><style>.cls-1{fill:#707070;stroke:#fff;stroke-miterlimit:10;stroke-width:0.3px;}</style></defs><title>商城ICON</title><path class="cls-1" d="M20.3285,4.30019H8.6715V5.91911a.64759.64759,0,1,1-1.29517,0V4.30019H6.081a3.238,3.238,0,0,0-3.238,3.238v2.59038H26.157V7.53819a3.23807,3.23807,0,0,0-3.23816-3.238H21.62367V5.91911a.64759.64759,0,1,1-1.29517,0ZM21.62367,3.005h1.29521a4.53315,4.53315,0,0,1,4.53337,4.53321v15.5427a4.53315,4.53315,0,0,1-4.53337,4.53321H6.081a4.53315,4.53315,0,0,1-4.53321-4.53321V7.53819A4.53315,4.53315,0,0,1,6.081,3.005H7.37633V2.03348a.64759.64759,0,1,1,1.29517,0V3.005h11.657V2.03348a.64759.64759,0,1,1,1.29517,0Zm4.53337,8.419H2.843v11.657a3.238,3.238,0,0,0,3.238,3.238H22.91888a3.23807,3.23807,0,0,0,3.23816-3.238ZM8.8903,18.6175a.64783.64783,0,1,1,.8575-.9713l2.97637,2.6273a.64766.64766,0,0,0,.90672-.04994L19.09154,14.226a.64763.64763,0,0,1,.95783.87173l-5.46,5.99751a1.94275,1.94275,0,0,1-2.7219.149Zm0,0"/></svg>