<svg xmlns="http://www.w3.org/2000/svg" viewBox="0 0 18.08471 18.24351"><defs><style>.cls-1{fill:#707070;stroke:#fff;stroke-miterlimit:10;stroke-width:0.1px;}</style></defs><title>资源 13</title><g id="图层_2" data-name="图层 2"><g id="图层_1-2" data-name="图层 1"><path class="cls-1" d="M7.5148.05H.87918A.82933.82933,0,0,0,.05.87918V7.51477A.82936.82936,0,0,0,.87918,8.344H7.5148A.82934.82934,0,0,0,8.344,7.51477V.88152A.83131.83131,0,0,0,7.5148.05Zm.10742,7.46711a.10865.10865,0,0,1-.10742.10745H.87918a.10867.10867,0,0,1-.10742-.10745V.88152A.10867.10867,0,0,1,.87918.77407H7.5148a.10865.10865,0,0,1,.10742.10745Zm0,0"/><path class="cls-1" d="M5.34963,2.52109H3.042a.5239.5239,0,0,0-.52327.52327V5.352a.52383.52383,0,0,0,.52327.52315H5.34963A.52373.52373,0,0,0,5.87278,5.352V3.04436a.52231.52231,0,0,0-.52315-.52327ZM5.15113,5.15347H3.24051V3.24285H5.15113Zm.19849,7.2079H3.042a.52381.52381,0,0,0-.52327.52315v2.30758a.5239.5239,0,0,0,.52327.52327H5.34963a.52381.52381,0,0,0,.52315-.52327V12.88453a.52073.52073,0,0,0-.52315-.52315Zm-.19849,2.63224H3.24051V13.083H5.15113Zm7.57693-9.11849h2.30758a.52371.52371,0,0,0,.52315-.52315V3.04436a.52379.52379,0,0,0-.52315-.52327H12.72806a.52389.52389,0,0,0-.52327.52327V5.352a.52231.52231,0,0,0,.52327.52315Zm.1985-2.63227h1.91059V5.15347H12.92656Zm0,0"/><path class="cls-1" d="M7.5148,9.82706H.87918A.82943.82943,0,0,0,.05,10.65627v6.63559a.82936.82936,0,0,0,.82918.82921H7.5148a.82934.82934,0,0,0,.82918-.82921V10.65627a.82941.82941,0,0,0-.82918-.82921Zm.10742,7.4648a.10865.10865,0,0,1-.10742.10745H.87918a.10867.10867,0,0,1-.10742-.10745V10.65627a.10867.10867,0,0,1,.10742-.10745H7.5148a.10865.10865,0,0,1,.10742.10745Zm2.98269-7.439a.82934.82934,0,0,0-.82921.82918v3.81644a.36205.36205,0,0,0,.7241,0v-3.8141a.10865.10865,0,0,1,.10745-.10742h4.01736a.36205.36205,0,0,0,0-.7241Zm-.042-1.5065h6.63559a.82936.82936,0,0,0,.82921-.82921V.88152a.82934.82934,0,0,0-.82921-.82919H10.56289a.82934.82934,0,0,0-.82921.82919V7.51711a.83238.83238,0,0,0,.82921.82921ZM10.45778.88152a.10867.10867,0,0,1,.10745-.10745h6.63559a.10867.10867,0,0,1,.10745.10745V7.51711a.10867.10867,0,0,1-.10745.10745H10.56289a.10868.10868,0,0,1-.10745-.10745V.88152Zm7.57693,9.33328a.36235.36235,0,0,0-.36212-.362H16.34832a.36205.36205,0,0,0,0,.7241h.96229v1.392H14.30931a.362.362,0,1,0,0,.724h3.36327a.36238.36238,0,0,0,.36212-.362Zm-6.659,7.19621h-.87823V16.40438a.36205.36205,0,0,0-.7241,0v1.36638a.36235.36235,0,0,0,.36209.362h1.24024a.36088.36088,0,1,0,0-.72176Zm3.99867-2.80043a.36235.36235,0,0,0-.362-.362h-2.282a.36237.36237,0,0,0-.36212.362v3.19753a.36205.36205,0,0,0,.7241,0V14.97256h1.92a.36084.36084,0,0,0,.362-.362Zm2.29588-1.31268a.36233.36233,0,0,0-.362.36209v3.80942H14.03838a.36205.36205,0,1,0,0,.7241H17.668a.36235.36235,0,0,0,.362-.362V13.66a.36039.36039,0,0,0-.35978-.36209Zm0,0"/><path class="cls-1" d="M11.88247,11.34057a.36237.36237,0,0,0-.362.36212v1.17479a.36205.36205,0,0,0,.7241,0V11.70269a.36238.36238,0,0,0-.36209-.36212Zm0,0"/></g></g></svg>